<svg xmlns="http://www.w3.org/2000/svg" viewBox="0 0 120 120" width="120" height="120">
  <rect width="120" height="120" rx="24" fill="#ffffff"/>
  <svg x="12" y="35" width="96" height="50" viewBox="0 0 1141 563">
    <g transform="translate(0,563) scale(0.1,-0.1)" fill="#059669" stroke="none">
      <path d="M3600 5315 c-232 -34 -424 -109 -721 -280 -191 -111 -172 -106 -434 -116 -126 -4 -250 -11 -275 -14 -539 -74 -1016 -333 -1352 -735 -358 -427 -534 -938 -514 -1490 7 -193 17 -273 56 -427 91 -361 271 -674 540 -943 551 -552 1332 -752 2220 -569 392 81 831 275 1195 527 439 304 766 616 1340 1277 500 577 703 788 1061 1103 646 571 1257 873 1924 952 131 16 443 12 567 -6 724 -106 1275 -552 1493 -1210 190 -576 103 -1225 -227 -1694 -95 -134 -311 -348 -438 -432 -433 -289 -966 -386 -1485 -271 -280 62 -711 213 -1175 413 -226 97 -429 169 -442 156 -23 -23 109 -193 222 -289 237 -200 666 -400 1025 -478 58 -12 109 -26 113 -29 12 -10 -201 -97 -310 -126 -123 -32 -331 -43 -462 -24 -249 36 -469 153 -690 365 -225 217 -392 492 -501 825 -46 138 -92 324 -84 333 3 2 48 -9 100 -24 53 -16 160 -38 238 -50 128 -19 162 -20 371 -12 127 4 327 8 445 8 241 -1 320 -12 472 -69 125 -47 192 -90 288 -186 72 -71 93 -100 132 -180 44 -90 79 -206 93 -313 10 -74 51 -113 144 -138 105 -27 136 -25 172 10 27 27 29 35 29 104 0 143 -46 312 -126 469 -114 219 -293 389 -525 497 -249 116 -518 150 -1024 130 -154 -6 -344 -9 -422 -6 -257 11 -499 75 -642 171 -41 27 -45 28 -57 12 -18 -25 -34 -131 -34 -227 0 -281 101 -650 270 -989 106 -214 230 -382 420 -570 135 -135 260 -226 420 -309 213 -110 365 -150 602 -158 332 -12 648 68 942 241 186 109 146 100 451 107 285 7 365 15 535 55 153 36 250 69 387 134 280 133 479 283 671 505 213 248 367 541 447 854 47 182 57 268 62 498 6 244 -3 351 -43 533 -90 410 -278 755 -569 1045 -235 235 -489 396 -796 506 -651 232 -1386 169 -2114 -180 -559 -269 -1034 -632 -1655 -1266 -179 -182 -256 -268 -536 -590 -734 -847 -1240 -1270 -1824 -1527 -401 -177 -735 -246 -1130 -235 -265 7 -435 38 -640 114 -600 223 -1003 691 -1137 1322 -25 117 -27 143 -27 366 1 223 3 249 28 365 180 823 768 1360 1601 1460 113 14 402 14 520 1 394 -46 765 -169 1326 -442 241 -118 339 -156 339 -134 0 16 -54 101 -102 162 -142 180 -412 376 -672 487 -125 54 -316 120 -409 142 -42 10 -74 21 -70 24 17 14 202 89 281 114 487 152 946 -8 1224 -426 101 -152 212 -397 288 -633 34 -107 110 -408 110 -435 0 -16 -8 -15 -92 6 -178 45 -397 54 -791 33 -408 -23 -667 29 -872 176 -166 118 -286 319 -322 535 -19 118 -39 156 -98 185 -43 20 -137 32 -180 21 -38 -10 -55 -59 -55 -160 0 -403 274 -802 667 -971 105 -46 235 -81 364 -100 116 -16 455 -19 744 -6 391 18 659 -28 841 -144 31 -20 62 -34 69 -31 39 15 50 278 20 491 -93 677 -388 1280 -765 1564 -94 71 -267 160 -388 201 -168 56 -438 75 -642 45z"/>
    </g>
  </svg>
</svg>
